# xmcd
#
# Track frame offsets: 
#        150
#        23147
#        37707
#        51957
#        72040
#        92635
#        109022
#        120645
#        134402
#        153760
#        170770
#        183297
#
# Disc length: 2735 seconds
#
# Revision: 2
# Processed by: cddbd v1.5.2PL0 Copyright (c) Steve Scherf et al.
# Submitted via: ExactAudioCopyFreeDBPlugin 1.0
#
DISCID=930aad0c
DTITLE=Tubæk River Feetwarmers - Go "crazy"
DYEAR=1997
DGENRE=Jazz
TTITLE0=Burgundy Street Parade
TTITLE1=Nobody knows You when You're down and out
TTITLE2=San Fransisco Bay
TTITLE3=Crazy
TTITLE4=Louisian-I-Ay
TTITLE5=If you dont
TTITLE6=Sister Kate
TTITLE7=Tennessee Walz
TTITLE8=Memphis Blues
TTITLE9=Gulf Coast Blues
TTITLE10=Cakewalking Babies Back Home
TTITLE11=Tishomingo Blues
EXTD=YEAR: 1997
EXTT0=
EXTT1=
EXTT2=
EXTT3=
EXTT4=
EXTT5=
EXTT6=
EXTT7=
EXTT8=
EXTT9=
EXTT10=
EXTT11=
PLAYORDER=
